<svg preserveAspectRatio="none" width="100%" height="100%" overflow="visible" style="display: block;" viewBox="0 0 11.9997 12.9543" fill="none" xmlns="http://www.w3.org/2000/svg">
<g id="Group 1000002648">
<path id="Vector" d="M6.31947 4.08206L6.52296 3.06461L6.72645 4.08206C7.10227 5.96123 8.57116 7.43012 10.4503 7.80595L11.4678 8.00944L10.4503 8.21293C8.57116 8.58876 7.10227 10.0576 6.72645 11.9368L6.52296 12.9543L6.31947 11.9368C5.94364 10.0576 4.47475 8.58876 2.59557 8.21293L1.57812 8.00944L2.59557 7.80595C4.47475 7.43012 5.94364 5.96123 6.31947 4.08206Z" fill="var(--fill-0, #5BF0A5)"/>
<path id="Vector_2" d="M2.37067 0.508735L2.47242 1.0252e-05L2.57416 0.508735C2.76208 1.44831 3.49651 2.18276 4.43611 2.37068L4.94483 2.47243L4.43611 2.57417C3.49651 2.76207 2.76208 3.49652 2.57416 4.43612L2.47242 4.94484L2.37067 4.43612C2.18275 3.49652 1.4483 2.76207 0.508724 2.57417L0 2.47243L0.508724 2.37068C1.4483 2.18276 2.18275 1.44831 2.37067 0.508735Z" fill="var(--fill-0, #5BF0A5)"/>
<path id="Vector_3" d="M10.2836 2.12007L10.3514 1.78092L10.4193 2.12007C10.5445 2.74647 11.0342 3.23608 11.6606 3.36137L11.9997 3.42921L11.6606 3.49703C11.0342 3.62231 10.5445 4.11193 10.4193 4.73832L10.3514 5.07748L10.2836 4.73832C10.1583 4.11193 9.66871 3.62231 9.04232 3.49703L8.70316 3.42921L9.04232 3.36137C9.66871 3.23608 10.1583 2.74647 10.2836 2.12007Z" fill="var(--fill-0, #5BF0A5)"/>
</g>
</svg>
